<?xml version="1.0" encoding="UTF-8"?>
<svg version="1.1" xmlns="http://www.w3.org/2000/svg" width="141" height="133">
<path d="M0 0 C2.38471881 2.88845717 2.99035043 4.56678505 3.07421875 8.33203125 C2.94660156 9.48058594 2.81898437 10.62914062 2.6875 11.8125 C2.56761719 12.97394531 2.44773437 14.13539062 2.32421875 15.33203125 C2.21722656 16.21246094 2.11023438 17.09289062 2 18 C3.0828125 17.2265625 3.0828125 17.2265625 4.1875 16.4375 C9.39971302 13.83139349 15.49266756 14.81985733 21 16 C24.50594114 18.54352593 26.38377507 21.03369665 28 25 C28.25878906 27.86914062 28.25878906 27.86914062 28.265625 31.15625 C28.26949219 32.93708984 28.26949219 32.93708984 28.2734375 34.75390625 C28.26570313 35.99011719 28.25796875 37.22632813 28.25 38.5 C28.26160156 40.35431641 28.26160156 40.35431641 28.2734375 42.24609375 C28.27085938 43.43332031 28.26828125 44.62054688 28.265625 45.84375 C28.26336914 46.92849609 28.26111328 48.01324219 28.25878906 49.13085938 C28.0045328 51.94974584 27.45753373 53.60599723 26 56 C23.25 56.3125 23.25 56.3125 20 56 C17.78125 54.1875 17.78125 54.1875 16 51 C15.65612838 47.19601407 15.94363694 43.48786086 16.25 39.6875 C16.31574219 38.66076172 16.38148437 37.63402344 16.44921875 36.57617188 C16.61378854 34.04885006 16.79795923 31.52455663 17 29 C16.37867187 28.68933594 15.75734375 28.37867187 15.1171875 28.05859375 C13.78645833 27.39322917 12.45572917 26.72786458 11.125 26.0625 C8.13991931 25.97470351 6.50922183 27.32094804 4.31005859 29.22387695 C1.65462794 32.82399958 2.19696369 37.2577195 2.25 41.5625 C2.24232576 43.43885145 2.22699205 45.31519091 2.203125 47.19140625 C2.20989258 48.01842041 2.21666016 48.84543457 2.22363281 49.69750977 C1.97911084 52.21507168 1.26197907 53.82773583 0 56 C-6.75 54.25 -6.75 54.25 -9 52 C-9.29866028 49.91944885 -9.29866028 49.91944885 -9.36645508 47.32250977 C-9.39600784 46.35132706 -9.42556061 45.38014435 -9.45600891 44.37953186 C-9.48745247 42.80140968 -9.48745247 42.80140968 -9.51953125 41.19140625 C-9.54601242 40.11374496 -9.57249359 39.03608368 -9.59977722 37.92576599 C-9.65252301 35.64357387 -9.70009184 33.3612572 -9.74291992 31.07885742 C-9.81215635 27.5798672 -9.9080756 24.08227887 -10.00585938 20.58398438 C-10.05371309 18.36982629 -10.09998973 16.15563344 -10.14453125 13.94140625 C-10.17561478 12.89134903 -10.2066983 11.84129181 -10.23872375 10.75941467 C-10.25251572 9.7850798 -10.26630768 8.81074493 -10.28051758 7.80688477 C-10.2989119 6.94909927 -10.31730621 6.09131378 -10.33625793 5.20753479 C-10 3 -10 3 -8.70121765 1.2308197 C-5.80490213 -0.86464539 -3.42738869 -0.48962696 0 0 Z " fill="#D85430" transform="translate(78,40)"/>
<path d="M0 0 C2.3125 2.5 2.3125 2.5 3.3125 4.5 C3.65796875 5.05558594 4.0034375 5.61117187 4.359375 6.18359375 C5.67119847 9.37175489 5.57695189 12.12656411 5.5625 15.5625 C5.57023437 17.40521484 5.57023437 17.40521484 5.578125 19.28515625 C5.3125 22.5 5.3125 22.5 3.3125 25.5 C2.879375 26.5209375 2.879375 26.5209375 2.4375 27.5625 C1.04400715 29.96240436 -0.19986038 30.36925472 -2.6875 31.5 C-3.14286133 32.00160645 -3.59822266 32.50321289 -4.06738281 33.02001953 C-6.97234588 35.67370942 -10.65845004 35.204882 -14.4375 35.375 C-15.22382812 35.43429688 -16.01015625 35.49359375 -16.8203125 35.5546875 C-22.26988438 35.84436574 -25.88012898 35.12619095 -30.6875 32.5 C-31.875 30.4375 -31.875 30.4375 -32.6875 28.5 C-33.6775 28.066875 -33.6775 28.066875 -34.6875 27.625 C-36.6875 26.5 -36.6875 26.5 -37.9375 24.125 C-39.3558738 17.26952664 -39.91733418 9.89143242 -36.6875 3.5 C-35.37102881 2.80062468 -34.03727849 2.13270867 -32.6875 1.5 C-32.254375 0.51 -32.254375 0.51 -31.8125 -0.5 C-30.6875 -2.5 -30.6875 -2.5 -28.3125 -3.6875 C-18.37125079 -5.91571103 -7.93380851 -7.38028699 0 0 Z M-18.6875 3.5 C-18.6875 4.16 -18.6875 4.82 -18.6875 5.5 C-19.450625 5.4175 -20.21375 5.335 -21 5.25 C-23.75416177 5.23076473 -23.75416177 5.23076473 -25.4375 7.125 C-27.35262988 10.76374677 -27.79869509 13.98033381 -27.5 18.0625 C-26.38696416 21.40160752 -25.32608535 23.12527319 -22.6875 25.5 C-19.69033593 26.20795082 -16.76112209 26.42775675 -13.6875 26.5 C-13.6875 25.84 -13.6875 25.18 -13.6875 24.5 C-12.73875 24.2525 -11.79 24.005 -10.8125 23.75 C-7.70499484 22.80013366 -7.70499484 22.80013366 -6.3125 20.8125 C-5.46279504 17.66859163 -5.56294176 14.73851421 -5.6875 11.5 C-6.3475 11.5 -7.0075 11.5 -7.6875 11.5 C-7.3575 10.51 -7.0275 9.52 -6.6875 8.5 C-9.94147508 6.24114676 -9.94147508 6.24114676 -13.6875 5.5 C-13.6875 4.84 -13.6875 4.18 -13.6875 3.5 C-15.3375 3.5 -16.9875 3.5 -18.6875 3.5 Z " fill="#D3532F" transform="translate(60.6875,60.5)"/>
<path d="M0 0 C2.75 -0.3125 2.75 -0.3125 6 0 C8.375 2.5 8.375 2.5 10 5 C7.25 10.875 7.25 10.875 5 12 C3.68 12 2.36 12 1 12 C-1.25 9.5 -1.25 9.5 -3 7 C-2.505 6.030625 -2.01 5.06125 -1.5 4.0625 C0.07331124 1.41867592 0.07331124 1.41867592 0 0 Z " fill="#C74F2D" transform="translate(111,84)"/>
</svg>
